<svg id="Layer_1" data-name="Layer 1" xmlns="http://www.w3.org/2000/svg" xmlns:xlink="http://www.w3.org/1999/xlink" viewBox="0 0 261.71 97.54"><defs><style>.cls-1{fill:#445055;}.cls-2{fill:#95c11f;}.cls-3{fill:#2b7c26;}.cls-4{fill:url(#linear-gradient);}</style><linearGradient id="linear-gradient" y1="58.48" x2="261.71" y2="58.48" gradientUnits="userSpaceOnUse"><stop offset="0" stop-color="#fff"/><stop offset="0.5" stop-color="#008d36"/><stop offset="1" stop-color="#fff"/></linearGradient></defs><title>nrspp-logo</title><path class="cls-1" d="M115.2,186.38v3.53h-1v-5.69H115l4.17,3.72a3.79,3.79,0,0,1,.68.78,5.77,5.77,0,0,1-.09-1.06v-3.43h1v5.69H120l-4.25-3.77a3.41,3.41,0,0,1-.67-.78A6.52,6.52,0,0,1,115.2,186.38Z" transform="translate(-70.46 -151.47)"/><path class="cls-1" d="M126.84,184.22h1l3.37,5.69H130l-.74-1.33h-3.93l-.72,1.33h-1.07Zm2,3.54-1.52-2.71-1.5,2.71Z" transform="translate(-70.46 -151.47)"/><path class="cls-1" d="M136,189.91h-1.07v-4.84H132.2v-.85h6.45v.85H136Z" transform="translate(-70.46 -151.47)"/><path class="cls-1" d="M141.3,189.91v-5.67h1.07v5.67Z" transform="translate(-70.46 -151.47)"/><path class="cls-1" d="M147.31,184.22h4.1c1.09,0,1.4.32,1.4,1.36v3c0,1-.32,1.34-1.4,1.34h-4.1c-1.09,0-1.4-.28-1.4-1.34v-3C145.91,184.54,146.22,184.22,147.31,184.22Zm4.43,4.83v-4H147v4Z" transform="translate(-70.46 -151.47)"/><path class="cls-1" d="M157.36,186.38v3.53h-1v-5.69h.82l4.17,3.72a3.79,3.79,0,0,1,.68.78,5.77,5.77,0,0,1-.09-1.06v-3.43h1v5.69h-.74L158,186.14a3.41,3.41,0,0,1-.67-.78A6.52,6.52,0,0,1,157.36,186.38Z" transform="translate(-70.46 -151.47)"/><path class="cls-1" d="M169,184.22h1l3.37,5.69h-1.17l-.74-1.33h-3.93l-.72,1.33h-1.07Zm2,3.54-1.52-2.71-1.5,2.71Z" transform="translate(-70.46 -151.47)"/><path class="cls-1" d="M176.12,184.22h1.07V189h4.43v.86h-5.5Z" transform="translate(-70.46 -151.47)"/><path class="cls-1" d="M190.45,184.22H195c.83,0,1.19.31,1.19,1.1v1.27c0,.78-.36,1.09-1.19,1.09h-.75l2.51,2.23h-1.44l-2.27-2.23h-1.56v2.23h-1.07Zm1.07.83v1.84h3c.47,0,.6-.12.6-.58v-.68c0-.47-.2-.58-.6-.58Z" transform="translate(-70.46 -151.47)"/><path class="cls-1" d="M201,184.22h4.1c1.09,0,1.4.32,1.4,1.36v3c0,1-.32,1.34-1.4,1.34H201c-1.09,0-1.39-.28-1.39-1.34v-3C199.61,184.54,199.92,184.22,201,184.22Zm4.43,4.83v-4h-4.75v4Z" transform="translate(-70.46 -151.47)"/><path class="cls-1" d="M212.43,184.22h1l3.37,5.69h-1.17l-.74-1.33h-3.93l-.72,1.33h-1.07Zm2,3.54-1.52-2.71-1.5,2.71Z" transform="translate(-70.46 -151.47)"/><path class="cls-1" d="M225.54,184.66a2.77,2.77,0,0,1,1.23,2.39c0,1.93-1.17,2.86-3.51,2.86H220v-5.69h3.27A4.37,4.37,0,0,1,225.54,184.66Zm-4.48.4v4h2.08c1.72,0,2.56-.47,2.56-2s-.86-2-2.56-2Z" transform="translate(-70.46 -151.47)"/><path class="cls-1" d="M237.52,185.07v1.48h3.65c1.09,0,1.38.32,1.38,1.34v.68c0,1-.31,1.34-1.38,1.34H237.7c-1.09,0-1.4-.29-1.4-1.34v-.16l1-.2V189h4.29v-1.6h-3.66c-1.07,0-1.38-.29-1.38-1.34v-.54c0-1.06.32-1.36,1.38-1.36h3.16c1,0,1.39.27,1.39,1.25v.13l-1,.21v-.75Z" transform="translate(-70.46 -151.47)"/><path class="cls-1" d="M248.46,184.22h1l3.37,5.69h-1.17l-.74-1.33H247l-.72,1.33h-1.07Zm2,3.54-1.52-2.71-1.5,2.71Z" transform="translate(-70.46 -151.47)"/><path class="cls-1" d="M255.58,184.22h5.66v.85h-4.59v1.76h2.59v.83h-2.59v2.25h-1.07Z" transform="translate(-70.46 -151.47)"/><path class="cls-1" d="M263.93,184.22h5.73v.85H265v1.46h2.8v.84H265v1.7h4.71v.83h-5.78Z" transform="translate(-70.46 -151.47)"/><path class="cls-1" d="M275.53,189.91h-1.07v-4.84h-2.68v-.85h6.45v.85h-2.7Z" transform="translate(-70.46 -151.47)"/><path class="cls-1" d="M282.84,187.43l-3-3.21h1.3l2.27,2.47,2.16-2.47h1.26l-3,3.21v2.48h-1.07Z" transform="translate(-70.46 -151.47)"/><path class="cls-2" d="M114.22,222.88H123c1.56,0,2.3.56,2.3,2v2.28c0,1.43-.73,2-2.3,2h-6.41v4h-2.34Zm2.34,1.77v2.72h5.34c.73,0,1.07-.14,1.07-.81v-1.09c0-.68-.34-.81-1.07-.81Z" transform="translate(-70.46 -151.47)"/><path class="cls-2" d="M133.22,222.88h2.3l5.86,10.24h-2.67l-1.23-2.24H131l-1.19,2.24h-2.37Zm3.27,6.15-2.2-4.17L132,229Z" transform="translate(-70.46 -151.47)"/><path class="cls-2" d="M146.24,222.88H155c1.56,0,2.3.56,2.3,2v2.4c0,1.43-.73,2-2.3,2h-1.35l4.71,3.87h-3.4l-4.12-3.87h-2.26v3.87h-2.34Zm2.34,1.77v2.86h5.34c.73,0,1.07-.14,1.07-.81v-1.23c0-.68-.34-.81-1.07-.81Z" transform="translate(-70.46 -151.47)"/><path class="cls-2" d="M168.07,233.13H165.7v-8.42H161v-1.83h11.78v1.83h-4.71Z" transform="translate(-70.46 -151.47)"/><path class="cls-2" d="M177.25,222.88h1.62l7.18,6a8.8,8.8,0,0,1,1.17,1.11c-.06-.85-.1-1.45-.1-1.77v-5.38h2.14v10.24h-1.62l-7.5-6.33a8.43,8.43,0,0,1-.85-.83c.08.79.1,1.33.1,1.63v5.54h-2.14Z" transform="translate(-70.46 -151.47)"/><path class="cls-2" d="M196,222.88H206.5v1.75h-8.07v2.28h4.71v1.75h-4.71v2.54h8.17v1.93H196Z" transform="translate(-70.46 -151.47)"/><path class="cls-2" d="M212.57,222.88h8.75c1.56,0,2.3.56,2.3,2v2.4c0,1.43-.73,2-2.3,2H220l4.71,3.87h-3.4l-4.12-3.87H214.9v3.87h-2.33Zm2.33,1.77v2.86h5.34c.73,0,1.07-.14,1.07-.81v-1.23c0-.68-.34-.81-1.07-.81Z" transform="translate(-70.46 -151.47)"/><path class="cls-2" d="M232.18,224.67v2.2h6.37c1.92,0,2.55.5,2.55,2.42v1.41c0,1.93-.63,2.42-2.55,2.42h-6.31c-1.92,0-2.55-.5-2.55-2.42v-.28l2.1-.44v1.21H239v-2.34h-6.37c-1.92,0-2.53-.5-2.53-2.42V225.3c0-1.93.61-2.42,2.53-2.42h5.8c1.82,0,2.53.48,2.53,2.24v.22l-2.1.5v-1.17Z" transform="translate(-70.46 -151.47)"/><path class="cls-2" d="M247.61,222.88H250v4h7.42v-4h2.39v10.24h-2.39v-4.41H250v4.41h-2.37Z" transform="translate(-70.46 -151.47)"/><path class="cls-2" d="M266.6,222.88H269v10.24H266.6Z" transform="translate(-70.46 -151.47)"/><path class="cls-2" d="M275.78,222.88h8.75c1.56,0,2.3.56,2.3,2v2.28c0,1.43-.73,2-2.3,2h-6.41v4h-2.34Zm2.34,1.77v2.72h5.34c.73,0,1.07-.14,1.07-.81v-1.09c0-.68-.34-.81-1.07-.81Z" transform="translate(-70.46 -151.47)"/><path class="cls-3" d="M155.83,241.32h6.48c1.18,0,1.68.42,1.68,1.49v1.72c0,1.07-.52,1.47-1.68,1.47h-5v3h-1.45Zm1.45,1.12v2.43h4.38c.58,0,.87-.14.87-.73v-1c0-.6-.29-.73-.87-.73Z" transform="translate(-70.46 -151.47)"/><path class="cls-3" d="M168.24,241.32h6.17c1.12,0,1.61.42,1.61,1.49v1.72c0,1.05-.49,1.47-1.61,1.47h-1l3.38,3h-1.94l-3.06-3h-2.1v3h-1.45Zm1.45,1.12v2.49h4.09c.63,0,.81-.16.81-.78v-.93c0-.63-.27-.78-.81-.78Z" transform="translate(-70.46 -151.47)"/><path class="cls-3" d="M182.47,241.32H188c1.47,0,1.88.44,1.88,1.83v4c0,1.42-.43,1.81-1.88,1.81h-5.54c-1.47,0-1.88-.38-1.88-1.81v-4C180.59,241.75,181,241.32,182.47,241.32Zm6,6.53v-5.39H182v5.39Z" transform="translate(-70.46 -151.47)"/><path class="cls-3" d="M196,242.46v5.39H202v-2.09H198.9v-1.05h4.58v2.49c0,1.42-.43,1.81-1.88,1.81H196.4c-1.47,0-1.88-.4-1.88-1.81v-4c0-1.42.43-1.83,1.88-1.83h5.19c1.36,0,1.88.38,1.88,1.72v.22l-1.45.25v-1.05Z" transform="translate(-70.46 -151.47)"/><path class="cls-3" d="M208.12,241.32h6.17c1.12,0,1.61.42,1.61,1.49v1.72c0,1.05-.49,1.47-1.61,1.47h-1l3.38,3h-1.94l-3.06-3h-2.1v3h-1.45Zm1.45,1.12v2.49h4.09c.63,0,.81-.16.81-.78v-.93c0-.63-.27-.78-.81-.78Z" transform="translate(-70.46 -151.47)"/><path class="cls-3" d="M224.18,241.32h1.32L230,249h-1.58l-1-1.8h-5.3l-1,1.8h-1.45Zm2.68,4.79-2-3.66-2,3.66Z" transform="translate(-70.46 -151.47)"/><path class="cls-3" d="M235,243.82V249h-1.19v-7.69H235l3.82,5,3.51-5h1.34V249H242.3v-5.19a6,6,0,0,1,.09-1.07,3.91,3.91,0,0,1-.51,1.07l-3,4h-.38l-3.06-3.94a3.52,3.52,0,0,1-.56-1.11C235,243.26,235,243.62,235,243.82Z" transform="translate(-70.46 -151.47)"/><path class="cls-1" d="M114.21,151.47h2.36l16.84,15a21.54,21.54,0,0,1,2.57,2.83,32.05,32.05,0,0,1-.35-5.53V151.47h3.45v22.46H137L119.66,158.3a10.27,10.27,0,0,1-2.27-2.52,37.16,37.16,0,0,1,.26,4.92v13.23h-3.45Z" transform="translate(-70.46 -151.47)"/><path class="cls-1" d="M154.26,151.47H172.4c3.27,0,4.76,1.22,4.76,4.35v5c0,3.13-1.48,4.35-4.76,4.35h-3.32l10.3,8.75H173.8l-9.16-8.75H158v8.75h-3.75Zm3.75,2.92v7.88h12.91c1.66,0,2.44-.39,2.44-2.31v-3.27c0-1.87-.79-2.31-2.44-2.31Z" transform="translate(-70.46 -151.47)"/><path class="cls-1" d="M194.26,154.51v6.27h14.18c4.1,0,5.23,1.26,5.23,5.31v2.52c0,4.14-1.18,5.31-5.23,5.31H195.3c-4.06,0-5.28-1.18-5.28-5.31V168l3.49-.83v3.61h16.75V164H196.13c-4,0-5.24-1.13-5.24-5.31v-2c0-4.18,1.22-5.31,5.24-5.31h12c3.75,0,5.28,1,5.28,4.92v.48l-3.23.91v-3.27Z" transform="translate(-70.46 -151.47)"/><path class="cls-1" d="M228.54,151.47h18.15c3.27,0,4.75,1.22,4.75,4.35v5c0,3.13-1.48,4.35-4.75,4.35H232.3v8.75h-3.75Zm3.75,2.92v7.84h12.91c1.66,0,2.44-.44,2.44-2.35v-3.13c0-1.87-.74-2.35-2.44-2.35Z" transform="translate(-70.46 -151.47)"/><path class="cls-1" d="M264.14,151.47h18.15c3.27,0,4.75,1.22,4.75,4.35v5c0,3.13-1.48,4.35-4.75,4.35h-14.4v8.75h-3.75Zm3.75,2.92v7.84H280.8c1.66,0,2.44-.44,2.44-2.35v-3.13c0-1.87-.74-2.35-2.44-2.35Z" transform="translate(-70.46 -151.47)"/><rect class="cls-4" y="58.13" width="261.71" height="0.7"/></svg>